<svg xmlns="http://www.w3.org/2000/svg" xmlns:svg="http://www.w3.org/2000/svg" xmlns:xlink="http://www.w3.org/1999/xlink" version="1.0" height="1010pt" width="567.378386590949pt" viewBox="425 37 575.378386590949 1016" ><defs><style type="text/css">
            @font-face {
                font-family: 'noto_regular';
                src: url('https://app.creately.com/diagram/assets/fonts/noto/noto-regular.woff') format('woff'),
                     url('https://app.creately.com/diagram/assets/fonts/noto/noto-regular.woff2') format('woff2');
                font-weight: normal;
                font-style: normal;
            }
        p {
            margin: 0;
        }
        </style></defs><defs><style>
            span{ display: inline-block; }
        </style></defs><g id="Lumg5R8NSY2"><g transform="translate(550 40)"><path d="M 20,40 L 20,40 L 20,40 A 20 20 0 0 1 0 20.000000000000004 L 0,20 L 0,20.000000000000004 A 20 20 0 0 1 20 0 L 80,0 L 80,0 L 80,0 A 20 20 0 0 1 100 20 L 100,20 L 100,20 A 20 20 0 0 1 80 40 L 20,40 Z" fill="rgb(65,131,74)" stroke="#1F5927" stroke-width="2" stroke-linecap="round" stroke-linejoin="round"/></g><g transform="translate(585.035, 50.8) rotate(0, 14.965, 9.2)" width="29.93" height="18.4"><text text-decoration="none" x="1.4649999999999999" fill="#ffffff" font-size="10pt" font-family="noto_regular"  y="15">Start</text><text text-decoration="none" x="28.465" fill="#4b4b4b" font-size="10pt" font-family="noto_regular"  y="15"></text></g></g><g id="5fFQ6xjZTzf"><g transform="translate(430 130.00000000000003)"><path d="M 0,59.99999999999999 L 20,0 L 339.99999999999955,0 L 319.99999999999955,59.99999999999999 L 0,59.99999999999999 Z" fill="rgb(255,255,255)" stroke="#8DA13B" stroke-width="2" stroke-linecap="round" stroke-linejoin="round"/></g><g transform="translate(453.50999999999976, 141.60000000000002) rotate(0, 146.49, 18.4)" width="292.98" height="36.8"><text text-decoration="none" x="96.99000000000001" fill="#8DA13B" font-weight="bold" font-size="10pt" font-family="noto_regular"  y="12">numberToGuess&#160;</text><text text-decoration="none" x="195.99" fill="#8DA13B" font-weight="bold" font-size="10pt" font-family="noto_regular"  y="12"></text><text text-decoration="none" x="16.99000000000001" fill="#8DA13B" font-size="10pt" font-family="noto_regular"  y="31">=&#160;</text><text text-decoration="none" x="26.99000000000001" fill="#8DA13B" font-size="10pt" font-family="noto_regular"  y="31">INPUT(&#x22;Enter&#160;</text><text text-decoration="none" x="103.99000000000001" fill="#8DA13B" font-size="10pt" font-family="noto_regular"  y="31">a&#160;</text><text text-decoration="none" x="113.99000000000001" fill="#8DA13B" font-size="10pt" font-family="noto_regular"  y="31">number&#160;</text><text text-decoration="none" x="159.99" fill="#8DA13B" font-size="10pt" font-family="noto_regular"  y="31">between&#160;</text><text text-decoration="none" x="211.99" fill="#8DA13B" font-size="10pt" font-family="noto_regular"  y="31">1&#160;</text><text text-decoration="none" x="221.99" fill="#8DA13B" font-size="10pt" font-family="noto_regular"  y="31">and&#160;</text><text text-decoration="none" x="245.99" fill="#8DA13B" font-size="10pt" font-family="noto_regular"  y="31">100&#x22;)</text><text text-decoration="none" x="275.99" fill="#4b4b4b" font-size="10pt" font-family="noto_regular"  y="31"></text></g></g><g id="N7ZxTa6zWcr"><g transform="translate(484.9999999999998 240.00000000000003)"><path d="M 0,60 L 20,0 L 230.00000000000003,0 L 210.00000000000003,60 L 0,60 Z" fill="rgb(255,255,255)" stroke="#8DA13B" stroke-width="2" stroke-linecap="round" stroke-linejoin="round"/></g><g transform="translate(512.2599999999998, 251.6) rotate(0, 87.74, 18.4)" width="175.48" height="36.8"><text text-decoration="none" x="56.239999999999995" fill="#8DA13B" font-weight="bold" font-size="10pt" font-family="noto_regular"  y="12">userGuess</text><text text-decoration="none" x="119.24" fill="#8DA13B" font-weight="bold" font-size="10pt" font-family="noto_regular"  y="12"></text><text text-decoration="none" x="11.739999999999995" fill="#8DA13B" font-size="10pt" font-family="noto_regular"  y="31">=&#160;</text><text text-decoration="none" x="21.739999999999995" fill="#8DA13B" font-size="10pt" font-family="noto_regular"  y="31">INPUT(&#x22;Enter&#160;</text><text text-decoration="none" x="98.74" fill="#8DA13B" font-size="10pt" font-family="noto_regular"  y="31">a&#160;</text><text text-decoration="none" x="108.74" fill="#8DA13B" font-size="10pt" font-family="noto_regular"  y="31">number:&#x22;)</text><text text-decoration="none" x="163.74" fill="#4b4b4b" font-size="10pt" font-family="noto_regular"  y="31"></text></g></g><g id="LHf3ioQYHKO"><g transform="translate(522.4999999999998 370.00000000000006)"><path d="M 77.49999999999996,0 L 0,65.26315789473684 L 77.49999999999996,130.52631578947367 L 154.99999999999991,65.26315789473684 L 77.49999999999996,0 Z" fill="rgb(255,255,255)" stroke="#43A047" stroke-width="2" stroke-linecap="round" stroke-linejoin="round"/></g><g transform="translate(548.0599999999997, 398.46315789473687) rotate(0, 51.94, 36.8)" width="103.88" height="73.6"><text text-decoration="none" x="46.44" fill="#43A047" font-size="10pt" font-family="noto_regular"  y="12">IF</text><text text-decoration="none" x="57.44" fill="#43A047" font-size="10pt" font-family="noto_regular"  y="12"></text><text text-decoration="none" x="3.9399999999999977" fill="#43A047" font-weight="bold" font-size="10pt" font-family="noto_regular"  y="28">numberToGuess</text><text text-decoration="none" x="99.94" fill="#43A047" font-weight="bold" font-size="10pt" font-family="noto_regular"  y="28"></text><text text-decoration="none" x="48.44" fill="#43A047" font-size="10pt" font-family="noto_regular"  y="44">&#x3E;</text><text text-decoration="none" x="55.44" fill="#43A047" font-size="10pt" font-family="noto_regular"  y="44"></text><text text-decoration="none" x="20.439999999999998" fill="#43A047" font-weight="bold" font-size="10pt" font-family="noto_regular"  y="63">userGuess</text><text text-decoration="none" x="83.44" fill="#4b4b4b" font-size="10pt" font-family="noto_regular"  y="63"></text></g></g><g id="5ahlhLXHyL3"><g transform="translate(802.4999999999986 370.00000000000006)"><path d="M 77.49999999999996,0 L 0,65.26315789473684 L 77.49999999999996,130.52631578947367 L 154.99999999999991,65.26315789473684 L 77.49999999999996,0 Z" fill="rgb(255,255,255)" stroke="#43A047" stroke-width="2" stroke-linecap="round" stroke-linejoin="round"/></g><g transform="translate(828.0599999999986, 398.46315789473687) rotate(0, 51.94, 36.8)" width="103.88" height="73.6"><text text-decoration="none" x="30.439999999999998" fill="#43A047" font-size="10pt" font-family="noto_regular"  y="12">ELSE&#160;</text><text text-decoration="none" x="62.44" fill="#43A047" font-size="10pt" font-family="noto_regular"  y="12">IF</text><text text-decoration="none" x="73.44" fill="#43A047" font-size="10pt" font-family="noto_regular"  y="12"></text><text text-decoration="none" x="3.9399999999999977" fill="#43A047" font-weight="bold" font-size="10pt" font-family="noto_regular"  y="28">numberToGuess</text><text text-decoration="none" x="99.94" fill="#43A047" font-weight="bold" font-size="10pt" font-family="noto_regular"  y="28"></text><text text-decoration="none" x="48.44" fill="#43A047" font-size="10pt" font-family="noto_regular"  y="44">&#x3C;</text><text text-decoration="none" x="55.44" fill="#43A047" font-size="10pt" font-family="noto_regular"  y="44"></text><text text-decoration="none" x="20.439999999999998" fill="#43A047" font-weight="bold" font-size="10pt" font-family="noto_regular"  y="63">userGuess</text><text text-decoration="none" x="83.44" fill="#4b4b4b" font-size="10pt" font-family="noto_regular"  y="63"></text></g></g><g id="eCBOYEVdy4f"><g transform="translate(514.9999999999995 569.9999999999999)"><path d="M 0,50.000000000000135 L 20,0 L 170.0000000000003,0 L 150.0000000000003,50.000000000000135 L 0,50.000000000000135 Z" fill="rgb(255,255,255)" stroke="#8DA13B" stroke-width="2" stroke-linecap="round" stroke-linejoin="round"/></g><g transform="translate(540.8149999999998, 585.8) rotate(0, 59.185, 9.2)" width="118.37" height="18.4"><text text-decoration="none" x="7.685000000000002" fill="#8DA13B" font-size="10pt" font-family="noto_regular"  y="15">OUTPUT(&#x22;Higher&#x22;)</text><text text-decoration="none" x="110.685" fill="#4b4b4b" font-size="10pt" font-family="noto_regular"  y="15"></text></g></g><g id="jh741Vudxuj"><g transform="translate(800.0000000000002 569.9999999999999)"><path d="M 0,49.99999969299517 L 20,0 L 159.99999999999693,0 L 139.99999999999693,49.99999969299517 L 0,49.99999969299517 Z" fill="rgb(255,255,255)" stroke="#8DA13B" stroke-width="2" stroke-linecap="round" stroke-linejoin="round"/></g><g transform="translate(822.9299999999986, 585.7999998464975) rotate(0, 57.07, 9.2)" width="114.14" height="18.4"><text text-decoration="none" x="6.57" fill="#8DA13B" font-size="10pt" font-family="noto_regular"  y="15">OUTPUT(&#x22;Lower&#x22;)</text><text text-decoration="none" x="107.57" fill="#4b4b4b" font-size="10pt" font-family="noto_regular"  y="15"></text></g></g><g id="B6pHIO5CeTp"><g transform="translate(522.4999999999998 700)"><path d="M 77.49999999999996,0 L 0,65.26315789473684 L 77.49999999999996,130.52631578947367 L 154.99999999999991,65.26315789473684 L 77.49999999999996,0 Z" fill="rgb(255,255,255)" stroke="#43A047" stroke-width="2" stroke-linecap="round" stroke-linejoin="round"/></g><g transform="translate(548.0599999999997, 728.4631578947369) rotate(0, 51.94, 36.8)" width="103.88" height="73.6"><text text-decoration="none" x="33.94" fill="#43a047" font-size="10pt" font-family="noto_regular"  y="12">UNTIL</text><text text-decoration="none" x="69.94" fill="#43a047" font-size="10pt" font-family="noto_regular"  y="12"></text><text text-decoration="none" x="3.9399999999999977" fill="#43a047" font-weight="bold" font-size="10pt" font-family="noto_regular"  y="28">numberToGuess</text><text text-decoration="none" x="99.94" fill="#43a047" font-weight="bold" font-size="10pt" font-family="noto_regular"  y="28"></text><text text-decoration="none" x="44.94" fill="#43a047" font-size="10pt" font-family="noto_regular"  y="44">==</text><text text-decoration="none" x="58.94" fill="#43a047" font-size="10pt" font-family="noto_regular"  y="44"></text><text text-decoration="none" x="20.439999999999998" fill="#43a047" font-weight="bold" font-size="10pt" font-family="noto_regular"  y="63">userGuess</text><text text-decoration="none" x="83.44" fill="#4b4b4b" font-size="10pt" font-family="noto_regular"  y="63"></text></g></g><g id="Nxk8qunf1Rw"><g transform="translate(520 910.0000000000002)"><path d="M 0,49.999999999999254 L 20,0 L 160.0000000000003,0 L 140.0000000000003,49.999999999999254 L 0,49.999999999999254 Z" fill="rgb(255,255,255)" stroke="#8DA13B" stroke-width="2" stroke-linecap="round" stroke-linejoin="round"/></g><g transform="translate(547.8550000000002, 925.7999999999997) rotate(0, 52.145, 9.2)" width="104.29" height="18.4"><text text-decoration="none" x="6.145000000000003" fill="#8DA13B" font-size="10pt" font-family="noto_regular"  y="15">OUTPUT(&#x22;Won&#x22;)</text><text text-decoration="none" x="98.14500000000001" fill="#4b4b4b" font-size="10pt" font-family="noto_regular"  y="15"></text></g></g><g id="TbQAKck7IHG"><g transform="translate(550 1010.0000000000001)"><path d="M 20,40 L 20,40 L 20,40 A 20 20 0 0 1 0 20.000000000000004 L 0,20 L 0,20.000000000000004 A 20 20 0 0 1 20 0 L 80,0 L 80,0 L 80,0 A 20 20 0 0 1 100 20 L 100,20 L 100,20 A 20 20 0 0 1 80 40 L 20,40 Z" fill="rgb(65,131,74)" stroke="#1F5927" stroke-width="2" stroke-linecap="round" stroke-linejoin="round"/></g><g transform="translate(588.065, 1020.8) rotate(0, 11.935, 9.2)" width="23.87" height="18.4"><text text-decoration="none" x="1.4350000000000005" fill="#ffffff" font-size="10pt" font-family="noto_regular"  y="15">End</text><text text-decoration="none" x="22.435000000000002" fill="#4b4b4b" font-size="10pt" font-family="noto_regular"  y="15"></text></g></g><g id="EuygHFy6Xb9"><g><path d="M 600,80 L 600,130" fill="none" stroke="#359B4F" stroke-width="2" stroke-linecap="round" stroke-linejoin="round"/><path d="M 600,130 L 605.75,121.30434782608698 L 594.25,121.30434782608693 Z" fill="rgb(53,155,79)" stroke="#359B4F" stroke-width="2" stroke-linecap="round" stroke-linejoin="round"/></g></g><g id="iiUIqNF8zjc"><g><path d="M 600,190 L 600,240" fill="none" stroke="#8C9B15" stroke-width="2" stroke-linecap="round" stroke-linejoin="round"/><path d="M 600,240 L 605.75,231.30434782608697 L 594.25,231.30434782608697 Z" fill="rgb(140,155,21)" stroke="#8C9B15" stroke-width="2" stroke-linecap="round" stroke-linejoin="round"/></g></g><g id="JjIm5IHSaof"><g><path d="M 600,300 L 600,370" fill="none" stroke="#8C9B15" stroke-width="2" stroke-linecap="round" stroke-linejoin="round"/><path d="M 600,370 L 605.75,361.30434782608694 L 594.25,361.30434782608694 Z" fill="rgb(140,155,21)" stroke="#8C9B15" stroke-width="2" stroke-linecap="round" stroke-linejoin="round"/></g></g><g id="H1BomCvJRJz"><mask id="8e457" x="586" y="487" width="28" height="97" maskUnits="userSpaceOnUse"><rect x="586" y="487" width="28" height="97" fill="white" /><rect x="586.27" y="523.3" width="27.46" height="24.4" fill="black" /></mask><g mask="url(#8e457)"><path d="M 600,501 L 600,570" fill="none" stroke="#359B4F" stroke-width="2" stroke-linecap="round" stroke-linejoin="round"/><path d="M 600,570 L 605.75,561.304347826087 L 594.25,561.304347826087 Z" fill="rgb(53,155,79)" stroke="#359B4F" stroke-width="2" stroke-linecap="round" stroke-linejoin="round"/></g><g transform="translate(589.27, 526.3)" width="21.46" height="18.4"><text text-decoration="none" x="0" fill="#359b4f" font-size="10pt" font-family="noto_regular"  y="15">Yes</text><text text-decoration="none" x="22" fill="#4b4b4b" font-size="10pt" font-family="noto_regular"  y="15"></text></g></g><g id="CDwV70OcIeT"><mask id="421a4" x="663" y="421" width="153" height="28" maskUnits="userSpaceOnUse"><rect x="663" y="421" width="153" height="28" fill="white" /><rect x="727.395" y="422.8" width="24.21" height="24.4" fill="black" /></mask><g mask="url(#421a4)"><path d="M 677,435 L 802,435" fill="none" stroke="#359B4F" stroke-width="2" stroke-linecap="round" stroke-linejoin="round"/><path d="M 802,435 L 793.304347826087,429.25 L 793.304347826087,440.75 Z" fill="rgb(53,155,79)" stroke="#359B4F" stroke-width="2" stroke-linecap="round" stroke-linejoin="round"/></g><g transform="translate(730.395, 425.8)" width="18.21" height="18.4"><text text-decoration="none" x="1.1050000000000004" fill="#359b4f" font-size="10pt" font-family="noto_regular"  y="15">No</text><text text-decoration="none" x="17.105" fill="#4b4b4b" font-size="10pt" font-family="noto_regular"  y="15"></text></g></g><g id="EogzKuqSiyj"><g><path d="M 600,620 L 600,700" fill="none" stroke="#8C9B15" stroke-width="2" stroke-linecap="round" stroke-linejoin="round"/><path d="M 600,700 L 605.75,691.304347826087 L 594.25,691.304347826087 Z" fill="rgb(140,155,21)" stroke="#8C9B15" stroke-width="2" stroke-linecap="round" stroke-linejoin="round"/></g></g><g id="eSMQ0mdq8GX"><mask id="e726a" x="586" y="817" width="28" height="107" maskUnits="userSpaceOnUse"><rect x="586" y="817" width="28" height="107" fill="white" /><rect x="586.27" y="858.3" width="27.46" height="24.4" fill="black" /></mask><g mask="url(#e726a)"><path d="M 600,831 L 600,910" fill="none" stroke="#359B4F" stroke-width="2" stroke-linecap="round" stroke-linejoin="round"/><path d="M 600,910 L 605.75,901.3043478260869 L 594.25,901.304347826087 Z" fill="rgb(53,155,79)" stroke="#359B4F" stroke-width="2" stroke-linecap="round" stroke-linejoin="round"/></g><g transform="translate(589.27, 861.3)" width="21.46" height="18.4"><text text-decoration="none" x="0" fill="#359b4f" font-size="10pt" font-family="noto_regular"  y="15">Yes</text><text text-decoration="none" x="22" fill="#4b4b4b" font-size="10pt" font-family="noto_regular"  y="15"></text></g></g><g id="OYetsb22HrY"><g><path d="M 600,960 L 600,1010" fill="none" stroke="#8C9B15" stroke-width="2" stroke-linecap="round" stroke-linejoin="round"/><path d="M 600,1010 L 605.75,1001.304347826087 L 594.25,1001.3043478260869 Z" fill="rgb(140,155,21)" stroke="#8C9B15" stroke-width="2" stroke-linecap="round" stroke-linejoin="round"/></g></g><g id="yYwHANsRrft"><mask id="d80a3" x="866" y="487" width="28" height="97" maskUnits="userSpaceOnUse"><rect x="866" y="487" width="28" height="97" fill="white" /><rect x="866.27" y="523.3" width="27.46" height="24.4" fill="black" /></mask><g mask="url(#d80a3)"><path d="M 880,501 L 880,570" fill="none" stroke="#359B4F" stroke-width="2" stroke-linecap="round" stroke-linejoin="round"/><path d="M 880,570 L 885.75,561.304347826087 L 874.25,561.304347826087 Z" fill="rgb(53,155,79)" stroke="#359B4F" stroke-width="2" stroke-linecap="round" stroke-linejoin="round"/></g><g transform="translate(869.27, 526.3)" width="21.46" height="18.4"><text text-decoration="none" x="0" fill="#359b4f" font-size="10pt" font-family="noto_regular"  y="15">Yes</text><text text-decoration="none" x="22" fill="#4b4b4b" font-size="10pt" font-family="noto_regular"  y="15"></text></g></g><g id="xYUWCDQw0OI"><mask id="bd799" x="663" y="421" width="339" height="358" maskUnits="userSpaceOnUse"><rect x="663" y="421" width="339" height="358" fill="white" /><rect x="976.168386590949" y="727.7997330703594" width="24.21" height="24.4" fill="black" /></mask><g mask="url(#bd799)"><path d="M 957,435 L 978.3222062393785,435 Q 988.3222062393785,435 988.3026786257393,444.9999809335971 L 988,600 L 988.3026786257393,755.000019066403 Q 988.3222062393785,765 978.3222062393785,765 L 677,765" fill="none" stroke="#359B4F" stroke-width="2" stroke-linecap="round" stroke-linejoin="round"/><path d="M 677,765 L 685.695652173913,770.75 L 685.695652173913,759.25 Z" fill="rgb(53,155,79)" stroke="#359B4F" stroke-width="2" stroke-linecap="round" stroke-linejoin="round"/></g><g transform="translate(979.168386590949, 730.7997330703594)" width="18.21" height="18.4"><text text-decoration="none" x="1.1050000000000004" fill="#359b4f" font-size="10pt" font-family="noto_regular"  y="15">No</text><text text-decoration="none" x="17.105" fill="#4b4b4b" font-size="10pt" font-family="noto_regular"  y="15"></text></g></g><g id="NFPSHZLvEoy"><g><path d="M 880,620 L 881,763" fill="none" stroke="#8C9B15" stroke-width="2" stroke-linecap="round" stroke-linejoin="round"/><path d="M 881,763 L 886.6890521418081,754.2643516292454 L 875.1893333188397,754.3447692433921 Z" fill="rgb(140,155,21)" stroke="#8C9B15" stroke-width="2" stroke-linecap="round" stroke-linejoin="round"/></g></g><g id="Mu8dOK0FwvF"><mask id="29e1b" x="432" y="198" width="182" height="581" maskUnits="userSpaceOnUse"><rect x="432" y="198" width="182" height="581" fill="white" /><rect x="433.89046700618786" y="437.98080634327715" width="24.21" height="24.4" fill="black" /></mask><g mask="url(#29e1b)"><path d="M 522,765 L 455.96765416363195,765 Q 445.96765416363195,765 445.96882611421694,755.0000000686734 L 446,489 L 445.9688218833485,221.99999993182152 Q 445.96765416363195,212 455.96765416363195,212 L 600,212" fill="none" stroke="#359B4F" stroke-width="2" stroke-linecap="round" stroke-linejoin="round"/><path d="M 600,212 L 591.304347826087,206.25 L 591.304347826087,217.75 Z" fill="rgb(53,155,79)" stroke="#359B4F" stroke-width="2" stroke-linecap="round" stroke-linejoin="round"/></g><g transform="translate(436.89046700618786, 440.98080634327715)" width="18.21" height="18.4"><text text-decoration="none" x="1.1050000000000004" fill="#359b4f" font-size="10pt" font-family="noto_regular"  y="15">No</text><text text-decoration="none" x="17.105" fill="#4b4b4b" font-size="10pt" font-family="noto_regular"  y="15"></text></g></g></svg>